G04*
G04 #@! TF.GenerationSoftware,Altium Limited,Altium Designer,18.0.7 (293)*
G04*
G04 Layer_Color=16711935*
%FSLAX25Y25*%
%MOIN*%
G70*
G01*
G75*
%ADD10R,0.07887X0.13792*%
%ADD11R,0.13792X0.07887*%
%ADD12R,0.07300X0.05800*%
%ADD13R,0.05800X0.07300*%
%ADD14R,0.05894X0.04331*%
%ADD15R,0.04331X0.05894*%
%ADD16R,0.09855X0.08800*%
%ADD17R,0.04331X0.04331*%
%ADD18R,0.08800X0.09855*%
%ADD19R,0.06300X0.04737*%
%ADD20R,0.06902X0.03162*%
%ADD21C,0.10642*%
%ADD22O,0.10642X0.06942*%
%ADD23R,0.10642X0.06942*%
%ADD24R,0.06942X0.10642*%
%ADD25O,0.06942X0.10642*%
%ADD26R,0.06706X0.06706*%
%ADD27C,0.06706*%
%ADD28C,0.07800*%
%ADD29R,0.07887X0.09461*%
%ADD30O,0.07887X0.09461*%
%ADD31R,0.10800X0.07800*%
%ADD32O,0.10800X0.07800*%
%ADD33R,0.07800X0.10800*%
%ADD34O,0.07800X0.10800*%
%ADD35R,0.10642X0.10642*%
%ADD36O,0.12611X0.09461*%
%ADD37C,0.24422*%
%ADD38C,0.09800*%
D10*
X185381Y142565D02*
D03*
X210577D02*
D03*
X185381Y158313D02*
D03*
X210577D02*
D03*
X317527Y91468D02*
D03*
X342724D02*
D03*
D11*
X378498Y178915D02*
D03*
Y204112D02*
D03*
D12*
X393701Y58929D02*
D03*
Y71929D02*
D03*
X78740Y58929D02*
D03*
Y71929D02*
D03*
D13*
X198898Y241364D02*
D03*
X211898D02*
D03*
D14*
X151772Y235864D02*
D03*
Y226864D02*
D03*
Y180746D02*
D03*
Y171746D02*
D03*
X393701Y78650D02*
D03*
Y87650D02*
D03*
X403701Y36209D02*
D03*
Y45209D02*
D03*
X383701Y36209D02*
D03*
Y45209D02*
D03*
X78740Y78650D02*
D03*
Y87650D02*
D03*
X88740Y36209D02*
D03*
Y45209D02*
D03*
X68740Y36209D02*
D03*
Y45209D02*
D03*
D15*
X203898Y174975D02*
D03*
X194898D02*
D03*
X322666Y226654D02*
D03*
X331665D02*
D03*
X322666Y242402D02*
D03*
X331665D02*
D03*
X362981Y76929D02*
D03*
X371981D02*
D03*
X362981Y56929D02*
D03*
X371981D02*
D03*
X48020D02*
D03*
X57020D02*
D03*
X48020Y76929D02*
D03*
X57020D02*
D03*
D16*
X9694Y199561D02*
D03*
Y217561D02*
D03*
X30094Y199561D02*
D03*
Y217561D02*
D03*
D17*
X343742Y242402D02*
D03*
X351616D02*
D03*
X343742Y226654D02*
D03*
X351616D02*
D03*
D18*
X164381Y117092D02*
D03*
X146381D02*
D03*
D19*
X305066Y98812D02*
D03*
Y107812D02*
D03*
X255066Y135371D02*
D03*
Y126371D02*
D03*
X295066Y98812D02*
D03*
Y107812D02*
D03*
X285066Y98812D02*
D03*
Y107812D02*
D03*
X265066Y135371D02*
D03*
Y126371D02*
D03*
X275066Y135371D02*
D03*
Y126371D02*
D03*
D20*
X119685Y231364D02*
D03*
Y236364D02*
D03*
Y241364D02*
D03*
Y246364D02*
D03*
Y251364D02*
D03*
Y256364D02*
D03*
Y261364D02*
D03*
X140945Y241364D02*
D03*
Y246364D02*
D03*
Y251364D02*
D03*
Y256364D02*
D03*
Y261364D02*
D03*
Y266364D02*
D03*
X119685D02*
D03*
X140945Y236364D02*
D03*
Y231364D02*
D03*
X119685Y176246D02*
D03*
Y181246D02*
D03*
Y186246D02*
D03*
Y191246D02*
D03*
Y196246D02*
D03*
Y201246D02*
D03*
Y206246D02*
D03*
X140945Y186246D02*
D03*
Y191246D02*
D03*
Y196246D02*
D03*
Y201246D02*
D03*
Y206246D02*
D03*
Y211246D02*
D03*
X119685D02*
D03*
X140945Y181246D02*
D03*
Y176246D02*
D03*
D21*
X326181Y299651D02*
D03*
Y142958D02*
D03*
X19894Y119921D02*
D03*
D22*
X101378Y186305D02*
D03*
Y206305D02*
D03*
Y226305D02*
D03*
Y246305D02*
D03*
Y266305D02*
D03*
Y276305D02*
D03*
Y286305D02*
D03*
Y256305D02*
D03*
Y236305D02*
D03*
Y216305D02*
D03*
Y196305D02*
D03*
Y176305D02*
D03*
Y166305D02*
D03*
Y146305D02*
D03*
Y156305D02*
D03*
D23*
Y296305D02*
D03*
D24*
X315066Y117092D02*
D03*
D25*
X305066D02*
D03*
X295066D02*
D03*
X285066D02*
D03*
X275066D02*
D03*
X265066D02*
D03*
X255066D02*
D03*
X245066D02*
D03*
X235066D02*
D03*
X225066D02*
D03*
X215066D02*
D03*
X205066D02*
D03*
X195066D02*
D03*
X185066D02*
D03*
X175066D02*
D03*
X315066Y17091D02*
D03*
X305066D02*
D03*
X295066D02*
D03*
X285066D02*
D03*
X275066D02*
D03*
X265066D02*
D03*
X255066D02*
D03*
X245066D02*
D03*
X235066D02*
D03*
X225066D02*
D03*
X215066D02*
D03*
X205066D02*
D03*
X195066D02*
D03*
X185066D02*
D03*
X175066D02*
D03*
D26*
X50012Y173113D02*
D03*
Y202313D02*
D03*
Y231513D02*
D03*
D27*
X59854Y173113D02*
D03*
Y202313D02*
D03*
Y231513D02*
D03*
D28*
X62433Y252411D02*
D03*
X47433D02*
D03*
X178347Y246364D02*
D03*
Y231364D02*
D03*
Y191246D02*
D03*
Y176246D02*
D03*
X65945Y301305D02*
D03*
Y286305D02*
D03*
X335191Y177598D02*
D03*
Y162598D02*
D03*
X160066Y48588D02*
D03*
X175066D02*
D03*
X381201Y116929D02*
D03*
X406201D02*
D03*
X381201Y96929D02*
D03*
X406201D02*
D03*
X383701Y26929D02*
D03*
X393701D02*
D03*
X403701D02*
D03*
X353701Y76929D02*
D03*
Y66929D02*
D03*
Y56929D02*
D03*
X66240Y116929D02*
D03*
X91240D02*
D03*
X66240Y96929D02*
D03*
X91240D02*
D03*
X68740Y26929D02*
D03*
X78740D02*
D03*
X88740D02*
D03*
X38740Y76929D02*
D03*
Y66929D02*
D03*
Y56929D02*
D03*
D29*
X378498Y152598D02*
D03*
D30*
Y162598D02*
D03*
X388498Y152598D02*
D03*
Y162598D02*
D03*
X398498Y152598D02*
D03*
Y162598D02*
D03*
X408498Y152598D02*
D03*
Y162598D02*
D03*
D31*
X162598Y231364D02*
D03*
Y176246D02*
D03*
X350939Y162598D02*
D03*
X81693Y286305D02*
D03*
D32*
X162598Y241364D02*
D03*
Y186246D02*
D03*
X350939Y172598D02*
D03*
X81693Y296305D02*
D03*
D33*
X175066Y32840D02*
D03*
D34*
X165066D02*
D03*
D35*
X19894Y139921D02*
D03*
D36*
Y230624D02*
D03*
Y250624D02*
D03*
Y186598D02*
D03*
Y166598D02*
D03*
D37*
X19211Y19685D02*
D03*
X452756D02*
D03*
Y295276D02*
D03*
X19685D02*
D03*
D38*
X363701Y93179D02*
D03*
Y40679D02*
D03*
X423701D02*
D03*
Y93179D02*
D03*
X48740D02*
D03*
Y40679D02*
D03*
X108740D02*
D03*
Y93179D02*
D03*
M02*
