M48
;Layer_Color=9474304
;FILE_FORMAT=2:5
INCH,LZ
;TYPE=PLATED
T1F00S00C0.03100
T2F00S00C0.03150
T3F00S00C0.03200
T4F00S00C0.03400
T5F00S00C0.03500
T6F00S00C0.03543
T7F00S00C0.04094
T8F00S00C0.04331
T9F00S00C0.04724
T10F00S00C0.05500
T11F00S00C0.07874
T12F00S00C0.11811
%
T01
X0335191Y0162598
X0175066Y0048588
X0160066
X0062433Y0252411
X0047433
X0065945Y0286305
Y0301305
X0178347Y0246364
Y0231364
Y0191246
Y0176246
X0335191Y0177598
T02
X0050012Y0173113
X0059854
Y0202313
X0050012
Y0231513
X0059854
T03
X0350939Y0162598
Y0172598
X0175066Y003284
X0165066
X0081693Y0286305
Y0296305
X0162598Y0241364
Y0231364
Y0186246
Y0176246
T04
X0101378Y0146305
Y0156305
Y0166305
Y0176305
Y0186305
Y0196305
Y0206305
Y0216305
Y0226305
Y0236305
Y0246305
Y0256305
Y0266305
Y0276305
Y0286305
Y0296305
T05
X0383701Y0026929
X0393701
X0403701
X0353701Y0056929
Y0066929
Y0076929
X008874Y0026929
X007874
X006874
X003874Y0056929
Y0066929
Y0076929
T06
X0381201Y0096929
Y0116929
X0406201
Y0096929
X009124
Y0116929
X006624
Y0096929
T07
X0175066Y0017091
X0185066
X0195066
X0205066
X0215066
X0225066
X0235066
X0245066
X0255066
X0265066
X0275066
X0285066
X0295066
X0305066
X0315066
Y0117092
X0305066
X0295066
X0285066
X0275066
X0265066
X0255066
X0245066
X0235066
X0225066
X0215066
X0205066
X0195066
X0185066
X0175066
T08
X0378498Y0152598
Y0162598
X0388498
Y0152598
X0398498
Y0162598
X0408498
Y0152598
T09
X0019894Y0119921
Y0139921
Y0166598
Y0186598
Y0230624
Y0250624
T10
X0363701Y0040679
Y0093179
X0423701
Y0040679
X010874
Y0093179
X004874
Y0040679
T11
X0326181Y0142958
Y0299651
T12
X0452756Y0019685
X0019211
X0019685Y0295276
X0452756
M30
